<svg width="883px" height="938px" xmlns="http://www.w3.org/2000/svg" viewBox="0 0 312.74 332.19"><defs><style>.cls-1{fill:#ffc800;}.cls-2{fill:#c5e8d7;}</style></defs><title>Recurso 18</title><g id="Capa_2" data-name="Capa 2"><g id="Home"><path class="cls-1" d="M206.17,145.38A3.52,3.52,0,1,1,211,144.1,3.52,3.52,0,0,1,206.17,145.38Z"/><path class="cls-1" d="M48.44,192.35a3.52,3.52,0,1,1,.66-4.93A3.53,3.53,0,0,1,48.44,192.35Z"/><path class="cls-1" d="M15.6,195.63a3.52,3.52,0,1,1,.15-5A3.51,3.51,0,0,1,15.6,195.63Z"/><path class="cls-1" d="M13.27,233.71a3.52,3.52,0,1,1,4.22,2.65A3.52,3.52,0,0,1,13.27,233.71Z"/><path class="cls-1" d="M150.22,252.67a3.52,3.52,0,1,1-.63-4.94A3.53,3.53,0,0,1,150.22,252.67Z"/><path class="cls-1" d="M300.07,308.62a3.52,3.52,0,1,1-.64-4.94A3.53,3.53,0,0,1,300.07,308.62Z"/><path class="cls-1" d="M30.32,132.51a3.52,3.52,0,1,1-4.42-2.3A3.52,3.52,0,0,1,30.32,132.51Z"/><path class="cls-1" d="M66,150.32A3.52,3.52,0,1,1,64.34,155,3.52,3.52,0,0,1,66,150.32Z"/><path class="cls-1" d="M83.71,226.34a3.52,3.52,0,1,1-2.63-4.23A3.51,3.51,0,0,1,83.71,226.34Z"/><path class="cls-1" d="M88.14,96.89a3.52,3.52,0,1,1,4.23-2.64A3.53,3.53,0,0,1,88.14,96.89Z"/><path class="cls-1" d="M303.89,137.06a3.52,3.52,0,1,1,3.93-3.06A3.53,3.53,0,0,1,303.89,137.06Z"/><path class="cls-1" d="M283.06,245.75a3.52,3.52,0,1,1-.41-5A3.52,3.52,0,0,1,283.06,245.75Z"/><path class="cls-1" d="M129.79,301.91a3.52,3.52,0,1,1-.41-5A3.53,3.53,0,0,1,129.79,301.91Z"/><path class="cls-1" d="M207.1,285.41a3.52,3.52,0,1,1-.41-5A3.52,3.52,0,0,1,207.1,285.41Z"/><path class="cls-1" d="M132,17a3.53,3.53,0,1,1-3.82-3.2A3.53,3.53,0,0,1,132,17Z"/><path class="cls-1" d="M184.1,222.63a3.52,3.52,0,1,1,4.09,2.85A3.52,3.52,0,0,1,184.1,222.63Z"/><path class="cls-2" d="M36.94,217.64a3.52,3.52,0,1,1,5-.35A3.52,3.52,0,0,1,36.94,217.64Z"/><path class="cls-2" d="M279.24,6.1a3.52,3.52,0,1,1,.2-5A3.52,3.52,0,0,1,279.24,6.1Z"/><path class="cls-2" d="M184.34,124.34a3.52,3.52,0,1,1,4.64,1.83A3.52,3.52,0,0,1,184.34,124.34Z"/><path class="cls-2" d="M212.94,243.9a3.52,3.52,0,1,1,.14-5A3.53,3.53,0,0,1,212.94,243.9Z"/><path class="cls-2" d="M239.93,331.23a3.52,3.52,0,1,1,.14-5A3.52,3.52,0,0,1,239.93,331.23Z"/><path class="cls-2" d="M188.52,295.16a3.52,3.52,0,1,1,.14-5A3.53,3.53,0,0,1,188.52,295.16Z"/><path class="cls-2" d="M310.82,119.81a3.52,3.52,0,1,1-4.74,1.53A3.51,3.51,0,0,1,310.82,119.81Z"/><path class="cls-2" d="M4.43,162.16a3.52,3.52,0,1,1,.25,5A3.52,3.52,0,0,1,4.43,162.16Z"/><path class="cls-2" d="M63.47,139.24a3.52,3.52,0,1,1-4.77,1.43A3.51,3.51,0,0,1,63.47,139.24Z"/><path class="cls-2" d="M241,231.29a3.52,3.52,0,1,1-3-4A3.52,3.52,0,0,1,241,231.29Z"/><path class="cls-2" d="M134.91,218.44a3.52,3.52,0,1,1,4.38,2.37A3.52,3.52,0,0,1,134.91,218.44Z"/><path class="cls-2" d="M1.49,237.09A3.52,3.52,0,1,1,.65,242,3.53,3.53,0,0,1,1.49,237.09Z"/><path class="cls-2" d="M83.59,194.19a3.52,3.52,0,1,1-4.51-2.11A3.5,3.5,0,0,1,83.59,194.19Z"/><path class="cls-2" d="M113.39,237.15a3.52,3.52,0,1,1-.71,4.92A3.52,3.52,0,0,1,113.39,237.15Z"/><path class="cls-2" d="M81.69,261.15a3.52,3.52,0,1,1-.7,4.92A3.51,3.51,0,0,1,81.69,261.15Z"/><path class="cls-2" d="M299.56,192.24a3.52,3.52,0,1,1,.4-5A3.53,3.53,0,0,1,299.56,192.24Z"/><path class="cls-2" d="M100.94,59.36a3.52,3.52,0,1,1,1.89,4.6A3.53,3.53,0,0,1,100.94,59.36Z"/><path class="cls-1" d="M135.77,112a3.52,3.52,0,1,1,5,0A3.52,3.52,0,0,1,135.77,112Z"/><path class="cls-1" d="M54.77,243.27a3.52,3.52,0,1,1,3.3,3.72A3.51,3.51,0,0,1,54.77,243.27Z"/></g></g></svg>